<svg width="860" height="196" viewBox="0 0 860 196" fill="none" xmlns="http://www.w3.org/2000/svg">
<path d="M202.79 79.4686C205.565 79.4686 207.674 79.8016 209.117 80.4676C210.56 81.0781 211.837 81.7718 212.947 82.5488C213.613 82.9373 214.14 83.2426 214.528 83.4646C214.972 83.6311 215.389 83.7143 215.777 83.7143C216.332 83.7143 216.721 83.4091 216.943 82.7986C217.22 82.1881 217.442 81.2723 217.609 80.0513H219.523C219.468 80.9948 219.385 82.1326 219.274 83.4646C219.218 84.7411 219.163 86.4616 219.107 88.6261C219.107 90.7351 219.107 93.5378 219.107 97.0343H217.192C217.026 94.3703 216.443 91.8173 215.444 89.3753C214.445 86.9333 212.974 84.9353 211.032 83.3813C209.145 81.8273 206.647 81.0503 203.539 81.0503C200.598 81.0503 198.156 81.9383 196.213 83.7143C194.326 85.4903 193.383 87.8213 193.383 90.7073C193.383 93.2048 194.021 95.3138 195.298 97.0343C196.574 98.6993 198.267 100.226 200.376 101.613C202.54 102.945 204.871 104.388 207.369 105.942C210.255 107.718 212.808 109.494 215.028 111.27C217.303 112.991 219.079 114.905 220.356 117.014C221.688 119.123 222.354 121.676 222.354 124.673C222.354 128.225 221.549 131.167 219.94 133.498C218.33 135.829 216.193 137.577 213.529 138.743C210.865 139.908 207.924 140.491 204.705 140.491C201.763 140.491 199.432 140.158 197.712 139.492C195.991 138.826 194.521 138.132 193.3 137.411C192.079 136.634 191.135 136.245 190.469 136.245C189.914 136.245 189.498 136.55 189.22 137.161C188.998 137.771 188.804 138.687 188.638 139.908H186.723C186.834 138.743 186.889 137.383 186.889 135.829C186.945 134.219 186.973 132.138 186.973 129.585C187.028 127.032 187.056 123.813 187.056 119.928H188.971C189.193 123.258 189.803 126.366 190.802 129.252C191.857 132.138 193.438 134.469 195.547 136.245C197.712 137.966 200.57 138.826 204.122 138.826C205.954 138.826 207.674 138.465 209.284 137.744C210.949 136.967 212.308 135.773 213.363 134.164C214.417 132.499 214.945 130.362 214.945 127.754C214.945 125.478 214.39 123.508 213.28 121.843C212.225 120.122 210.727 118.541 208.784 117.098C206.842 115.599 204.566 114.073 201.958 112.519C199.349 110.909 196.907 109.272 194.632 107.607C192.356 105.942 190.525 104.027 189.137 101.863C187.805 99.6428 187.139 96.9788 187.139 93.8708C187.139 90.5963 187.861 87.9046 189.304 85.7956C190.802 83.6311 192.745 82.0493 195.131 81.0503C197.518 79.9958 200.071 79.4686 202.79 79.4686ZM261.152 80.3843V82.0493C259.265 82.1048 257.822 82.3268 256.823 82.7153C255.879 83.0483 255.241 83.7143 254.908 84.7133C254.575 85.6568 254.408 87.1553 254.408 89.2088V130.501C254.408 132.499 254.575 133.997 254.908 134.996C255.241 135.995 255.879 136.661 256.823 136.994C257.822 137.327 259.265 137.549 261.152 137.66V139.325C259.875 139.214 258.266 139.159 256.323 139.159C254.436 139.103 252.521 139.076 250.579 139.076C248.414 139.076 246.389 139.103 244.502 139.159C242.615 139.159 241.088 139.214 239.923 139.325V137.66C241.81 137.549 243.225 137.327 244.169 136.994C245.168 136.661 245.834 135.995 246.167 134.996C246.5 133.997 246.666 132.499 246.666 130.501V89.2088C246.666 87.1553 246.5 85.6568 246.167 84.7133C245.834 83.7143 245.168 83.0483 244.169 82.7153C243.225 82.3268 241.81 82.1048 239.923 82.0493V80.3843C241.088 80.4398 242.615 80.4953 244.502 80.5508C246.389 80.6063 248.414 80.6341 250.579 80.6341C252.521 80.6341 254.436 80.6063 256.323 80.5508C258.266 80.4953 259.875 80.4398 261.152 80.3843ZM299.352 80.3843V82.0493C297.465 82.1048 296.022 82.3268 295.023 82.7153C294.08 83.0483 293.442 83.7143 293.109 84.7133C292.776 85.6568 292.609 87.1553 292.609 89.2088V130.501C292.609 132.499 292.776 133.997 293.109 134.996C293.442 135.995 294.08 136.661 295.023 136.994C296.022 137.272 297.465 137.411 299.352 137.411H305.43C308.038 137.411 310.147 137.133 311.757 136.578C313.422 136.023 314.726 135.163 315.669 133.997C316.668 132.776 317.418 131.167 317.917 129.169C318.417 127.171 318.805 124.729 319.083 121.843H320.997C320.831 123.563 320.748 125.839 320.748 128.669C320.748 129.724 320.775 131.25 320.831 133.248C320.942 135.191 321.108 137.216 321.33 139.325C318.5 139.214 315.309 139.159 311.757 139.159C308.205 139.103 305.041 139.076 302.266 139.076C301.045 139.076 299.463 139.076 297.521 139.076C295.634 139.076 293.58 139.103 291.36 139.159C289.14 139.159 286.893 139.187 284.617 139.242C282.342 139.242 280.177 139.27 278.124 139.325V137.66C280.011 137.549 281.426 137.327 282.369 136.994C283.368 136.661 284.034 135.995 284.367 134.996C284.7 133.997 284.867 132.499 284.867 130.501V89.2088C284.867 87.1553 284.7 85.6568 284.367 84.7133C284.034 83.7143 283.368 83.0483 282.369 82.7153C281.426 82.3268 280.011 82.1048 278.124 82.0493V80.3843C279.289 80.4398 280.815 80.4953 282.702 80.5508C284.589 80.6063 286.615 80.6341 288.78 80.6341C290.722 80.6341 292.637 80.6063 294.524 80.5508C296.466 80.4953 298.076 80.4398 299.352 80.3843ZM384.758 80.3843V82.0493C383.037 82.2713 381.372 82.8263 379.763 83.7143C378.153 84.6023 376.544 86.0731 374.934 88.1266L358.867 108.689L360.699 104.61L380.679 132.582C381.622 133.97 382.649 135.052 383.759 135.829C384.869 136.606 386.284 137.216 388.005 137.66V139.325C386.673 139.214 385.008 139.159 383.01 139.159C381.067 139.103 379.402 139.076 378.015 139.076C377.071 139.076 375.906 139.103 374.518 139.159C373.186 139.159 371.493 139.214 369.44 139.325V137.66C371.327 137.549 372.52 137.216 373.02 136.661C373.519 136.106 373.325 135.191 372.437 133.914L360.282 115.599C359.172 113.879 358.173 112.602 357.285 111.77C356.453 110.882 355.565 110.299 354.621 110.021C353.733 109.744 352.596 109.577 351.208 109.522V107.857C353.539 107.801 355.482 107.357 357.036 106.525C358.645 105.637 359.977 104.527 361.032 103.195L369.024 93.0383C370.855 90.7073 372.104 88.7371 372.77 87.1276C373.436 85.5181 373.408 84.2971 372.687 83.4646C371.965 82.5766 370.439 82.1048 368.108 82.0493V80.3843C369.162 80.4398 370.245 80.4953 371.355 80.5508C372.465 80.5508 373.547 80.5786 374.601 80.6341C375.711 80.6341 376.738 80.6341 377.682 80.6341C379.125 80.6341 380.457 80.6063 381.678 80.5508C382.899 80.4953 383.925 80.4398 384.758 80.3843ZM358.284 80.3843V82.0493C356.397 82.1048 354.954 82.3268 353.955 82.7153C353.012 83.0483 352.374 83.7143 352.041 84.7133C351.708 85.6568 351.541 87.1553 351.541 89.2088V130.501C351.541 132.499 351.708 133.997 352.041 134.996C352.374 135.995 353.012 136.661 353.955 136.994C354.954 137.327 356.397 137.549 358.284 137.66V139.325C357.008 139.214 355.398 139.159 353.456 139.159C351.569 139.103 349.654 139.076 347.712 139.076C345.547 139.076 343.521 139.103 341.634 139.159C339.747 139.159 338.221 139.214 337.056 139.325V137.66C338.943 137.549 340.358 137.327 341.301 136.994C342.3 136.661 342.966 135.995 343.299 134.996C343.632 133.997 343.799 132.499 343.799 130.501V89.2088C343.799 87.1553 343.632 85.6568 343.299 84.7133C342.966 83.7143 342.3 83.0483 341.301 82.7153C340.358 82.3268 338.943 82.1048 337.056 82.0493V80.3843C338.221 80.4398 339.747 80.4953 341.634 80.5508C343.521 80.6063 345.547 80.6341 347.712 80.6341C349.654 80.6341 351.569 80.6063 353.456 80.5508C355.398 80.4953 357.008 80.4398 358.284 80.3843ZM454.38 80.8838C456.489 80.8838 458.237 81.1336 459.624 81.6331C461.012 82.0771 462.15 82.6598 463.038 83.3813C463.759 83.9363 464.342 84.5468 464.786 85.2128C465.23 85.8788 465.563 86.5448 465.785 87.2108C466.007 87.8768 466.118 88.5151 466.118 89.1256C466.118 90.5131 465.618 91.5953 464.619 92.3723C463.676 93.1493 462.621 93.5378 461.456 93.5378C460.346 93.5378 459.347 93.1771 458.459 92.4556C457.571 91.7341 457.127 90.7073 457.127 89.3753C457.127 88.1543 457.543 87.1276 458.376 86.2951C459.208 85.4071 460.263 84.9076 461.539 84.7966C461.317 84.0751 460.623 83.4646 459.458 82.9651C458.348 82.4101 456.933 82.1326 455.212 82.1326C452.382 82.1326 450.051 82.9928 448.219 84.7133C446.443 86.3783 445.555 88.8203 445.555 92.0393C445.555 93.5933 445.833 95.1751 446.388 96.7846C446.998 98.3941 448.136 99.9758 449.801 101.53C450.744 101.363 451.716 101.252 452.715 101.197C453.714 101.086 454.463 101.03 454.962 101.03C455.961 101.03 456.766 101.197 457.377 101.53C457.987 101.863 458.292 102.335 458.292 102.945C458.292 103.445 458.07 103.833 457.626 104.111C457.238 104.388 456.683 104.527 455.961 104.527C454.907 104.527 453.797 104.305 452.631 103.861C451.466 103.361 450.55 102.973 449.884 102.695C446.665 103.639 444.057 105.193 442.059 107.357C440.061 109.466 439.062 112.463 439.062 116.348C439.062 120.178 440.061 123.425 442.059 126.089C444.057 128.753 446.721 130.806 450.051 132.249C453.436 133.637 457.21 134.33 461.373 134.33C464.314 134.33 467.089 133.997 469.698 133.331C472.362 132.61 474.693 131.583 476.691 130.251C478.744 128.919 480.354 127.337 481.519 125.506C482.685 123.619 483.267 121.482 483.267 119.096C483.267 118.041 483.045 116.709 482.601 115.1C482.157 113.435 481.242 111.825 479.854 110.271C478.467 108.662 476.33 107.413 473.444 106.525L474.443 105.692C478.494 106.913 481.38 108.884 483.101 111.603C484.821 114.267 485.682 117.264 485.682 120.594C485.682 123.924 484.683 127.115 482.685 130.168C480.687 133.22 477.801 135.718 474.027 137.66C470.253 139.547 465.674 140.491 460.29 140.491C456.683 140.491 453.242 140.019 449.967 139.076C446.748 138.132 443.89 136.772 441.393 134.996C438.895 133.165 436.925 130.973 435.482 128.42C434.039 125.867 433.317 122.981 433.317 119.762C433.317 116.765 433.9 114.212 435.066 112.103C436.231 109.938 437.674 108.162 439.395 106.775C441.115 105.387 442.836 104.333 444.556 103.611C446.277 102.834 447.664 102.307 448.719 102.029C446.887 101.197 445.333 100.226 444.057 99.1156C442.836 97.9501 441.892 96.7013 441.226 95.3693C440.616 93.9818 440.31 92.6221 440.31 91.2901C440.31 89.9581 440.616 88.6816 441.226 87.4606C441.837 86.1841 442.725 85.0463 443.89 84.0473C445.056 83.0483 446.499 82.2713 448.219 81.7163C449.995 81.1613 452.049 80.8838 454.38 80.8838ZM484.683 79.2188C488.124 79.2188 491.01 80.2178 493.341 82.2158C495.672 84.1583 496.837 86.9056 496.837 90.4576C496.837 92.3446 496.476 94.0373 495.755 95.5358C495.089 96.9788 494.145 98.2553 492.924 99.3653C491.759 100.475 490.427 101.391 488.928 102.113C487.652 102.723 485.959 103.389 483.85 104.111C481.797 104.832 479.577 105.554 477.19 106.275C474.859 106.997 472.611 107.718 470.447 108.44C468.338 109.106 466.617 109.688 465.285 110.188C463.232 110.965 461.484 111.936 460.041 113.102C458.653 114.212 457.959 115.655 457.959 117.431C457.959 118.874 458.376 120.095 459.208 121.094C460.041 122.093 461.04 122.842 462.205 123.341C463.426 123.841 464.564 124.091 465.618 124.091C466.118 124.091 466.728 124.035 467.45 123.924C468.227 123.758 468.921 123.536 469.531 123.258C470.142 122.981 470.502 122.648 470.613 122.259C469.725 122.093 468.837 121.704 467.949 121.094C467.117 120.428 466.701 119.401 466.701 118.013C466.701 116.681 467.145 115.627 468.033 114.85C468.921 114.073 470.003 113.684 471.279 113.684C472.611 113.684 473.666 114.101 474.443 114.933C475.275 115.766 475.692 116.848 475.692 118.18C475.692 119.734 475.164 121.066 474.11 122.176C473.111 123.23 471.834 124.035 470.28 124.59C468.782 125.09 467.283 125.339 465.785 125.339C464.231 125.339 462.649 125.006 461.04 124.34C459.43 123.674 458.098 122.648 457.044 121.26C455.989 119.817 455.462 117.93 455.462 115.599C455.462 113.657 455.878 111.936 456.711 110.438C457.599 108.939 458.903 107.607 460.623 106.442C462.344 105.276 464.453 104.277 466.95 103.445C468.615 102.89 470.641 102.279 473.028 101.613C475.414 100.947 477.856 100.226 480.354 99.4486C482.907 98.6716 485.21 97.8113 487.263 96.8678C490.038 95.5913 491.925 94.2871 492.924 92.9551C493.923 91.6231 494.423 90.2633 494.423 88.8758C494.423 87.2663 493.979 85.8511 493.091 84.6301C492.203 83.3536 491.01 82.3546 489.511 81.6331C488.068 80.8561 486.486 80.4676 484.766 80.4676C484.1 80.4676 483.545 80.5231 483.101 80.6341C482.657 80.7451 482.379 80.9393 482.268 81.2168C483.045 81.6053 483.628 82.1603 484.017 82.8818C484.405 83.6033 484.599 84.3248 484.599 85.0463C484.599 86.2118 484.128 87.1831 483.184 87.9601C482.296 88.7371 481.214 89.1256 479.937 89.1256C478.883 89.1256 477.884 88.7926 476.94 88.1266C475.997 87.4051 475.525 86.3506 475.525 84.9631C475.525 83.5201 475.997 82.3823 476.94 81.5498C477.939 80.7173 479.133 80.1346 480.52 79.8016C481.963 79.4131 483.351 79.2188 484.683 79.2188ZM584.244 80.3843C584.022 82.3268 583.856 84.2138 583.745 86.0453C583.689 87.8768 583.662 89.2643 583.662 90.2078C583.662 91.2068 583.689 92.1781 583.745 93.1216C583.8 94.0096 583.856 94.7588 583.911 95.3693H581.997C581.664 92.0948 581.192 89.5141 580.581 87.6271C579.971 85.6846 578.916 84.3248 577.418 83.5478C575.975 82.7153 573.783 82.2991 570.841 82.2991H563.931C562.044 82.2991 560.601 82.4656 559.602 82.7986C558.659 83.0761 558.021 83.7143 557.688 84.7133C557.355 85.6568 557.188 87.1553 557.188 89.2088V130.501C557.188 132.499 557.355 133.997 557.688 134.996C558.021 135.995 558.659 136.661 559.602 136.994C560.601 137.272 562.044 137.411 563.931 137.411H570.009C573.505 137.411 576.141 136.939 577.917 135.995C579.749 135.052 581.053 133.526 581.83 131.417C582.663 129.252 583.273 126.338 583.662 122.675H585.576C585.41 124.174 585.327 126.172 585.327 128.669C585.327 129.724 585.354 131.25 585.41 133.248C585.521 135.191 585.687 137.216 585.909 139.325C583.079 139.214 579.888 139.159 576.336 139.159C572.784 139.103 569.62 139.076 566.845 139.076C565.624 139.076 564.042 139.076 562.1 139.076C560.213 139.076 558.159 139.103 555.939 139.159C553.719 139.159 551.472 139.187 549.196 139.242C546.921 139.242 544.756 139.27 542.703 139.325V137.66C544.59 137.549 546.005 137.327 546.948 136.994C547.947 136.661 548.613 135.995 548.946 134.996C549.279 133.997 549.446 132.499 549.446 130.501V89.2088C549.446 87.1553 549.279 85.6568 548.946 84.7133C548.613 83.7143 547.947 83.0483 546.948 82.7153C546.005 82.3268 544.59 82.1048 542.703 82.0493V80.3843C544.756 80.4398 546.921 80.4953 549.196 80.5508C551.472 80.5508 553.719 80.5786 555.939 80.6341C558.159 80.6341 560.213 80.6341 562.1 80.6341C564.042 80.6341 565.624 80.6341 566.845 80.6341C569.398 80.6341 572.284 80.6341 575.503 80.6341C578.778 80.5786 581.691 80.4953 584.244 80.3843ZM569.925 108.856C569.925 108.856 569.925 109.133 569.925 109.688C569.925 110.243 569.925 110.521 569.925 110.521H554.691C554.691 110.521 554.691 110.243 554.691 109.688C554.691 109.133 554.691 108.856 554.691 108.856H569.925ZM572.34 97.8668C572.118 101.03 572.007 103.445 572.007 105.11C572.062 106.775 572.09 108.301 572.09 109.688C572.09 111.076 572.118 112.602 572.173 114.267C572.229 115.932 572.367 118.346 572.589 121.51H570.675C570.453 119.734 570.175 118.013 569.842 116.348C569.565 114.628 568.899 113.24 567.844 112.186C566.845 111.076 565.125 110.521 562.683 110.521V108.856C564.514 108.856 565.902 108.495 566.845 107.774C567.844 106.997 568.566 106.025 569.01 104.86C569.454 103.694 569.759 102.501 569.925 101.28C570.092 100.004 570.258 98.8658 570.425 97.8668H572.34ZM668.941 80.3843V82.0493C667.054 82.1048 665.611 82.3268 664.612 82.7153C663.668 83.0483 663.03 83.7143 662.697 84.7133C662.364 85.6568 662.198 87.1553 662.198 89.2088V130.501C662.198 132.499 662.364 133.997 662.697 134.996C663.03 135.995 663.668 136.661 664.612 136.994C665.611 137.327 667.054 137.549 668.941 137.66V139.325C667.664 139.214 666.055 139.159 664.112 139.159C662.225 139.103 660.311 139.076 658.368 139.076C656.204 139.076 654.178 139.103 652.291 139.159C650.404 139.159 648.878 139.214 647.712 139.325V137.66C649.599 137.549 651.014 137.327 651.958 136.994C652.957 136.661 653.623 135.995 653.956 134.996C654.289 133.997 654.455 132.499 654.455 130.501V84.7133L654.788 84.9631L634.392 139.742H633.06L612.081 85.7123V129.668C612.081 131.666 612.248 133.248 612.581 134.414C612.969 135.524 613.691 136.328 614.745 136.828C615.855 137.272 617.492 137.549 619.657 137.66V139.325C618.658 139.214 617.354 139.159 615.744 139.159C614.135 139.103 612.608 139.076 611.165 139.076C609.778 139.076 608.363 139.103 606.92 139.159C605.532 139.159 604.367 139.214 603.423 139.325V137.66C605.31 137.549 606.725 137.272 607.669 136.828C608.668 136.328 609.334 135.524 609.667 134.414C610 133.248 610.166 131.666 610.166 129.668V89.2088C610.166 87.1553 610 85.6568 609.667 84.7133C609.334 83.7143 608.668 83.0483 607.669 82.7153C606.725 82.3268 605.31 82.1048 603.423 82.0493V80.3843C604.367 80.4398 605.532 80.4953 606.92 80.5508C608.363 80.6063 609.778 80.6341 611.165 80.6341C612.386 80.6341 613.635 80.6063 614.912 80.5508C616.244 80.4953 617.354 80.4398 618.242 80.3843L637.139 130.168L635.724 130.834L654.455 80.6341C655.121 80.6341 655.76 80.6341 656.37 80.6341C657.036 80.6341 657.702 80.6341 658.368 80.6341C660.311 80.6341 662.225 80.6063 664.112 80.5508C666.055 80.4953 667.664 80.4398 668.941 80.3843ZM685.932 80.3843C687.097 80.4398 688.623 80.4953 690.51 80.5508C692.397 80.6063 694.257 80.6341 696.088 80.6341C698.697 80.6341 701.194 80.6063 703.581 80.5508C705.967 80.4953 707.66 80.4676 708.659 80.4676C714.486 80.4676 718.871 81.6886 721.812 84.1306C724.754 86.5726 726.225 89.7083 726.225 93.5378C726.225 95.4803 725.808 97.3951 724.976 99.2821C724.199 101.114 722.867 102.806 720.98 104.36C719.148 105.859 716.679 107.08 713.571 108.023V108.19C717.955 108.745 721.368 109.799 723.81 111.353C726.308 112.852 728.056 114.628 729.055 116.681C730.054 118.735 730.554 120.899 730.554 123.175C730.554 126.338 729.749 129.141 728.139 131.583C726.585 133.97 724.31 135.857 721.313 137.244C718.316 138.632 714.736 139.325 710.574 139.325C709.353 139.325 707.521 139.298 705.079 139.242C702.637 139.131 699.696 139.076 696.255 139.076C694.312 139.076 692.397 139.103 690.51 139.159C688.623 139.159 687.097 139.214 685.932 139.325V137.66C687.819 137.549 689.234 137.327 690.177 136.994C691.176 136.661 691.842 135.995 692.175 134.996C692.508 133.997 692.675 132.499 692.675 130.501V89.2088C692.675 87.1553 692.508 85.6568 692.175 84.7133C691.842 83.7143 691.176 83.0483 690.177 82.7153C689.234 82.3268 687.819 82.1048 685.932 82.0493V80.3843ZM706.578 82.0493C704.025 82.0493 702.36 82.5211 701.583 83.4646C700.806 84.4081 700.417 86.3228 700.417 89.2088V130.501C700.417 132.443 700.584 133.914 700.917 134.913C701.25 135.912 701.86 136.578 702.748 136.911C703.636 137.244 704.94 137.411 706.661 137.411C712.1 137.411 716.04 136.162 718.482 133.664C720.98 131.111 722.229 127.504 722.229 122.842C722.229 118.568 721.063 115.266 718.732 112.935C716.457 110.604 712.683 109.439 707.41 109.439H698.835C698.835 109.439 698.835 109.217 698.835 108.773C698.835 108.273 698.835 108.023 698.835 108.023H705.995C709.269 108.023 711.795 107.413 713.571 106.192C715.347 104.915 716.568 103.25 717.234 101.197C717.9 99.0878 718.233 96.8401 718.233 94.4536C718.233 90.3466 717.317 87.2663 715.485 85.2128C713.709 83.1038 710.74 82.0493 706.578 82.0493ZM788.763 80.3843C788.541 82.3268 788.374 84.2138 788.263 86.0453C788.208 87.8768 788.18 89.2643 788.18 90.2078C788.18 91.2068 788.208 92.1781 788.263 93.1216C788.319 94.0096 788.374 94.7588 788.43 95.3693H786.515C786.182 92.0948 785.71 89.5141 785.1 87.6271C784.489 85.6846 783.435 84.3248 781.936 83.5478C780.493 82.7153 778.301 82.2991 775.36 82.2991H768.45C766.563 82.2991 765.12 82.4656 764.121 82.7986C763.177 83.0761 762.539 83.7143 762.206 84.7133C761.873 85.6568 761.707 87.1553 761.707 89.2088V130.501C761.707 132.499 761.873 133.997 762.206 134.996C762.539 135.995 763.177 136.661 764.121 136.994C765.12 137.272 766.563 137.411 768.45 137.411H774.527C778.024 137.411 780.66 136.939 782.436 135.995C784.267 135.052 785.572 133.526 786.349 131.417C787.181 129.252 787.792 126.338 788.18 122.675H790.095C789.928 124.174 789.845 126.172 789.845 128.669C789.845 129.724 789.873 131.25 789.928 133.248C790.039 135.191 790.206 137.216 790.428 139.325C787.597 139.214 784.406 139.159 780.854 139.159C777.302 139.103 774.139 139.076 771.364 139.076C770.143 139.076 768.561 139.076 766.618 139.076C764.731 139.076 762.678 139.103 760.458 139.159C758.238 139.159 755.99 139.187 753.715 139.242C751.439 139.242 749.275 139.27 747.221 139.325V137.66C749.108 137.549 750.523 137.327 751.467 136.994C752.466 136.661 753.132 135.995 753.465 134.996C753.798 133.997 753.964 132.499 753.964 130.501V89.2088C753.964 87.1553 753.798 85.6568 753.465 84.7133C753.132 83.7143 752.466 83.0483 751.467 82.7153C750.523 82.3268 749.108 82.1048 747.221 82.0493V80.3843C749.275 80.4398 751.439 80.4953 753.715 80.5508C755.99 80.5508 758.238 80.5786 760.458 80.6341C762.678 80.6341 764.731 80.6341 766.618 80.6341C768.561 80.6341 770.143 80.6341 771.364 80.6341C773.917 80.6341 776.803 80.6341 780.022 80.6341C783.296 80.5786 786.21 80.4953 788.763 80.3843ZM774.444 108.856C774.444 108.856 774.444 109.133 774.444 109.688C774.444 110.243 774.444 110.521 774.444 110.521H759.209C759.209 110.521 759.209 110.243 759.209 109.688C759.209 109.133 759.209 108.856 759.209 108.856H774.444ZM776.858 97.8668C776.636 101.03 776.525 103.445 776.525 105.11C776.581 106.775 776.608 108.301 776.608 109.688C776.608 111.076 776.636 112.602 776.692 114.267C776.747 115.932 776.886 118.346 777.108 121.51H775.193C774.971 119.734 774.694 118.013 774.361 116.348C774.083 114.628 773.417 113.24 772.363 112.186C771.364 111.076 769.643 110.521 767.201 110.521V108.856C769.033 108.856 770.42 108.495 771.364 107.774C772.363 106.997 773.084 106.025 773.528 104.86C773.972 103.694 774.277 102.501 774.444 101.28C774.61 100.004 774.777 98.8658 774.943 97.8668H776.858ZM807.942 80.3843C809.107 80.4398 810.633 80.4953 812.52 80.5508C814.407 80.6063 816.267 80.6341 818.098 80.6341C820.707 80.6341 823.204 80.6063 825.591 80.5508C827.977 80.4953 829.67 80.4676 830.669 80.4676C835.164 80.4676 838.883 81.1058 841.824 82.3823C844.821 83.6588 847.041 85.4071 848.484 87.6271C849.983 89.7916 850.732 92.2336 850.732 94.9531C850.732 96.6181 850.399 98.3941 849.733 100.281C849.067 102.168 847.902 103.944 846.237 105.609C844.627 107.274 842.407 108.662 839.577 109.772C836.746 110.826 833.166 111.353 828.837 111.353H820.845V109.688H828.005C831.945 109.688 834.942 109.078 836.996 107.857C839.105 106.58 840.52 104.915 841.242 102.862C842.019 100.753 842.407 98.4218 842.407 95.8688C842.407 91.4843 841.353 88.0988 839.244 85.7123C837.19 83.2703 833.638 82.0493 828.588 82.0493C826.035 82.0493 824.37 82.5211 823.593 83.4646C822.816 84.4081 822.427 86.3228 822.427 89.2088V130.501C822.427 132.499 822.594 133.997 822.927 134.996C823.26 135.995 823.898 136.661 824.841 136.994C825.84 137.327 827.283 137.549 829.17 137.66V139.325C827.894 139.214 826.284 139.159 824.342 139.159C822.455 139.103 820.54 139.076 818.598 139.076C816.433 139.076 814.407 139.103 812.52 139.159C810.633 139.159 809.107 139.214 807.942 139.325V137.66C809.829 137.549 811.244 137.327 812.187 136.994C813.186 136.661 813.852 135.995 814.185 134.996C814.518 133.997 814.685 132.499 814.685 130.501V89.2088C814.685 87.1553 814.518 85.6568 814.185 84.7133C813.852 83.7143 813.186 83.0483 812.187 82.7153C811.244 82.3268 809.829 82.1048 807.942 82.0493V80.3843ZM821.178 109.938C824.175 110.049 826.534 110.188 828.255 110.354C829.975 110.465 831.363 110.576 832.417 110.687C833.527 110.798 834.582 110.937 835.581 111.104C839.299 111.714 841.963 112.852 843.573 114.517C845.238 116.126 846.459 118.652 847.236 122.093L849.317 130.584C849.872 133.026 850.427 134.802 850.982 135.912C851.592 136.967 852.508 137.466 853.729 137.411C854.673 137.355 855.45 137.05 856.06 136.495C856.726 135.94 857.42 135.191 858.141 134.247L859.39 135.163C858.225 136.883 857.004 138.215 855.727 139.159C854.506 140.047 852.758 140.491 850.482 140.491C848.429 140.491 846.625 139.88 845.071 138.659C843.517 137.438 842.352 135.052 841.575 131.5L839.743 123.175C839.244 120.788 838.661 118.735 837.995 117.014C837.384 115.238 836.496 113.851 835.331 112.852C834.221 111.853 832.556 111.353 830.336 111.353H821.345L821.178 109.938Z" fill="#F2E8DC"/>
<path d="M69.1911 136.326C70.3922 137.004 71.6316 137.611 72.9016 137.884C74.1734 138.157 75.3885 138.066 76.4366 137.554C77.4848 137.042 78.3038 136.14 78.8707 134.969C79.4358 133.799 79.7191 132.449 79.9233 131.085C79.9233 131.085 79.9233 131.085 79.9233 131.085C80.6083 123.453 78.3724 116.554 74.0682 111.366C73.8325 111.083 73.5917 110.807 73.341 110.534C69.3983 106.264 63.8928 103.291 57.7202 101.281C54.6237 100.312 51.31 99.4842 47.5239 99.3735C43.8301 99.1487 38.9064 100.591 36.2415 103.631C35.8723 104.014 35.5265 104.422 35.204 104.852C33.3952 107.251 31.7475 110.582 31.7963 114.295C31.8218 118.003 33.411 121.134 35.0616 123.496C38.4823 128.234 42.4462 131.386 46.128 134.672C54.1585 141.07 58.6785 154.032 54.1047 157.671C54.0592 157.755 54.0134 157.84 53.9673 157.927C51.4364 160.552 48.3475 160.423 47.8338 160.754C47.6313 160.882 47.5708 160.88 47.6657 160.895C47.7507 160.903 47.9663 160.98 47.9234 161.065C47.0166 160.856 46.1483 160.637 45.2978 160.403C36.2239 158.126 27.0983 154.591 22.2561 142.124C22.0733 141.67 21.9077 141.215 21.7595 140.757C21.1401 138.838 21.1081 136.83 20.9089 134.84C19.4861 123.494 23.6764 108.213 34.7108 98.919C35.9159 97.9011 37.236 97.0214 38.6158 96.2872C48.3261 90.7535 61.1536 89.355 71.0462 77.7731C79.1309 68.9514 81.7653 52.5574 77.6006 42.0722C71.3185 26.1828 61.6991 19.6235 52.3166 11.7579C47.3786 7.89697 41.4368 3.88861 37.2815 1.06319C36.8534 0.597964 36.3052 0.227705 35.6808 0.0761983C35.0568 -0.0755594 34.4151 -0.000142574 33.8752 0.297711C33.3354 0.595565 32.9294 1.09823 32.725 1.70697C32.5202 2.31596 32.5411 2.97716 32.7063 3.58744C32.7063 3.58744 32.7063 3.58744 32.7063 3.58744C36.1125 10.4924 39.2696 15.0738 42.5017 20.553C48.2161 30.1135 55.0363 41.2258 55.8379 47.677C56.6573 54.4145 55.5958 57.4934 51.8924 62.2826C47.1928 68.215 39.9901 78.3899 31.372 86.0252C29.9104 87.2967 28.4649 88.5608 27.0042 89.7943C14.3466 100.602 0.865927 114.879 0.0111256 135.229C-0.089241 138.603 0.507435 141.95 1.03187 145.274C1.15729 146.073 1.2963 146.875 1.45015 147.682C3.30938 163.647 14.4818 185.933 33.6981 192.722C35.2953 193.367 36.8816 193.929 38.487 194.431C47.9031 197.429 58.979 195.427 66.6738 190.351C78.3223 182.963 82.8657 168.406 79.5202 156.606C79.4596 156.413 79.3975 156.218 79.3337 156.022C73.0023 137.659 58.936 135.831 51.5346 128.492C44.2161 122.17 36.8846 115.224 42.2487 110.306C42.3702 110.162 42.4863 110.043 42.5958 109.944C43.8969 108.656 46.5197 111.181 48.7102 114.824C50.895 118.437 52.5967 122.65 55.194 126.005C55.3608 126.221 55.5291 126.432 55.7032 126.641C58.8918 130.505 63.3183 133.428 69.1911 136.326Z" fill="#F2E8DC"/>
</svg>
